<?xml version="1.0" encoding="UTF-8" standalone="no"?><!DOCTYPE svg  PUBLIC '-//W3C//DTD SVG 1.1//EN'  'http://www.w3.org/Graphics/SVG/1.1/DTD/svg11.dtd'>
<svg id="main" viewBox="0 0 128 128"
    xmlns="http://www.w3.org/2000/svg"
    xmlns:xlink="http://www.w3.org/1999/xlink" data-name="Layer 1">
    <linearGradient id="linear-gradient" gradientUnits="userSpaceOnUse" x1="18.5" x2="109.5" y1="64" y2="64">
        <stop offset="0" stop-color="#4196fe"/>
        <stop offset="1" stop-color="#d841fe"/>
    </linearGradient>
    <path d="m102.58 59.53v4.97a1.75 1.75 0 1 1 -3.5 0v-4.97a1.75 1.75 0 1 1 3.5 0zm-84.08 40.64a14.012 14.012 0 0 1 6.92-12.237v-28.403c0-30.021 9.263-40.345 9.657-40.77a1.749 1.749 0 0 1 1.282-.56 1.751 1.751 0 0 1 1.282.559c.315.338 6.253 6.965 8.662 24.8 5.019-27.559 15.925-37.815 16.522-38.359a1.75 1.75 0 0 1 2.351 0c.6.541 11.5 10.792 16.521 38.355 2.409-17.835 8.348-24.461 8.662-24.8a1.751 1.751 0 0 1 1.281-.555 1.749 1.749 0 0 1 1.282.56c.325.351 7.985 8.86 9.426 32.806a1.75 1.75 0 1 1 -3.494.21c-1-16.692-5.085-25.356-7.205-28.806-2.423 3.982-7.459 14.869-7.459 36.56v20.189a65.711 65.711 0 0 0 13.824 6.389l1.066.386v-15.244a1.75 1.75 0 1 1 3.5 0v16.684a14 14 0 0 1 6.92 12.219v6.028a1.75 1.75 0 0 1 -1.75 1.75h-5.17v4.651l2.2 8.48a1.75 1.75 0 0 1 -1.694 2.189h-22.9a1.75 1.75 0 0 1 -1.694-2.189l2.2-8.467v-4.665h-3.629v6.184a1.75 1.75 0 0 1 -1.75 1.75h-9.563v5.636a1.75 1.75 0 0 1 -3.5 0v-5.636h-9.562a1.75 1.75 0 0 1 -1.75-1.75v-6.184h-3.628v4.664l2.2 8.467a1.75 1.75 0 0 1 -1.694 2.189h-4.566a1.75 1.75 0 0 1 0-3.5h2.3l-1.344-5.18h-15.686l-1.344 5.18h8.187a1.75 1.75 0 0 1 0 3.5h-10.449a1.75 1.75 0 0 1 -1.694-2.189l2.2-8.48v-4.651h-5.17a1.75 1.75 0 0 1 -1.75-1.75zm25.31 7.76h-14.89v3.137h14.89zm18.44-6.352a3.906 3.906 0 1 0 -7.812 0v4.578.024s0 .016 0 .024v6.16h7.812zm11.313 0a3.906 3.906 0 1 0 -7.812 0v10.786h7.813v-6.164c0-.008 0-.016 0-.024s0-.016 0-.024zm27.262 18.172-1.344-5.18h-15.688l-1.344 5.18zm-1.744-8.683v-3.137h-14.891v3.137zm-17.751-29.024a43.724 43.724 0 0 1 -6.379-5.267v19.633a7.378 7.378 0 0 1 2.112 5.169v2.852h28.937v-2.506h-15.75a1.75 1.75 0 0 1 0-3.5h15.6a9.936 9.936 0 0 0 -5.682-7.775c-.96-.391-2.116-.808-3.339-1.249a67.806 67.806 0 0 1 -15.211-7.166c-.027-.014-.05-.035-.076-.051-.05-.03-.1-.062-.144-.1-.023-.012-.048-.023-.068-.04zm-34.02-4.817a39.674 39.674 0 0 0 5.74-5.6v-3.726a107.827 107.827 0 0 1 2.241-23.009 1.75 1.75 0 1 1 3.418.754 104.328 104.328 0 0 0 -2.159 22.255v26.5a7.281 7.281 0 0 1 5.7.9v-5.966a1.75 1.75 0 0 1 3.5 0v5.966a7.281 7.281 0 0 1 5.7-.9v-26.5c0-21.833-5.017-32.625-7.445-36.569a35.743 35.743 0 0 0 -2.926 6.156 1.75 1.75 0 0 1 -3.279-1.228c2.38-6.357 4.814-9.021 4.917-9.131a1.806 1.806 0 0 1 2.564 0c.4.425 9.668 10.75 9.668 40.771v3.724a39.674 39.674 0 0 0 5.74 5.6v-3.873c.001-41.175-12.705-59.527-16.689-64.266-3.98 4.734-16.69 23.085-16.69 64.266zm-18.39 9.268 1.066-.386a65.711 65.711 0 0 0 13.824-6.389v-20.189c0-21.815-5.008-32.607-7.439-36.559-2.421 3.983-7.451 14.87-7.451 36.559zm-6.92 17.936h28.938v-2.852a7.378 7.378 0 0 1 2.112-5.169v-19.634a43.729 43.729 0 0 1 -6.408 5.287c-.013.01-.028.018-.042.028-.046.034-.093.065-.142.095-.02.012-.037.027-.057.038a67.746 67.746 0 0 1 -15.229 7.177c-1.215.438-2.362.851-3.321 1.241l-.02.008a9.934 9.934 0 0 0 -5.677 7.774h15.6a1.75 1.75 0 0 1 0 3.5h-15.754zm39-45.149h6a1.75 1.75 0 0 0 0-3.5h-6a1.75 1.75 0 0 0 0 3.5z" fill="url(#linear-gradient)"/>
</svg>
