<?xml version="1.0" encoding="UTF-8" standalone="no"?><!DOCTYPE svg  PUBLIC '-//W3C//DTD SVG 1.1//EN'  'http://www.w3.org/Graphics/SVG/1.1/DTD/svg11.dtd'>
<svg id="main"
    xmlns="http://www.w3.org/2000/svg"
    xmlns:xlink="http://www.w3.org/1999/xlink" viewBox="0 0 135.94 44.97">
    <defs>
        <style>.cls-1{fill:#333;}.cls-2{fill:#fff;}.cls-3{fill:url(#linear-gradient);}</style>
        <linearGradient id="linear-gradient" x1="9.72" y1="14.69" x2="38.5" y2="14.69" gradientTransform="matrix(1, 0, 0, -1, 0, 35.16)" gradientUnits="userSpaceOnUse">
            <stop offset="0" stop-color="#4196fe"/>
            <stop offset="1" stop-color="#d841fe"/>
        </linearGradient>
    </defs>
    <title>logo-small</title>
    <g id="padding">
        <rect class="cls-1" width="135.94" height="44.97" rx="6"/>
    </g>
    <g id="next-gen">
        <path class="cls-2" d="M56,8.05a.67.67,0,0,1,.53.22.76.76,0,0,1,.2.53V21.12a.81.81,0,0,1-.24.61.84.84,0,0,1-.59.23,1.09,1.09,0,0,1-.34-.07.73.73,0,0,1-.28-.19l-8.5-11.25.39-.22v11a.7.7,0,0,1-.75.74.72.72,0,0,1-.54-.21.76.76,0,0,1-.2-.53V8.86a.75.75,0,0,1,.24-.59.79.79,0,0,1,.56-.22,1,1,0,0,1,.37.07.53.53,0,0,1,.28.23l8.37,11.06-.24.32V8.8a.72.72,0,0,1,.21-.53A.68.68,0,0,1,56,8.05Z" transform="translate(0 -0.03)"/>
        <path class="cls-2" d="M64.59,22.15a5.53,5.53,0,0,1-2.78-.67A4.75,4.75,0,0,1,60,19.62a5.42,5.42,0,0,1-.67-2.73,5.9,5.9,0,0,1,.69-3,4.89,4.89,0,0,1,1.79-1.87,4.52,4.52,0,0,1,2.33-.64,4.85,4.85,0,0,1,1.78.33,4.58,4.58,0,0,1,1.51,1,5,5,0,0,1,1.48,3.57.72.72,0,0,1-.26.53.81.81,0,0,1-.56.21H60.2l-.36-1.37h7.65l-.32.28v-.44a2.52,2.52,0,0,0-.55-1.4,3.24,3.24,0,0,0-3.71-1,2.94,2.94,0,0,0-1,.67A3.23,3.23,0,0,0,61.11,15a5.13,5.13,0,0,0-.28,1.77,4.25,4.25,0,0,0,.47,2,3.52,3.52,0,0,0,1.3,1.38,3.64,3.64,0,0,0,1.93.51,3.69,3.69,0,0,0,1.22-.18,3.46,3.46,0,0,0,.88-.45,3.58,3.58,0,0,0,.64-.55.88.88,0,0,1,.5-.18.66.66,0,0,1,.49.2.63.63,0,0,1,.2.48.81.81,0,0,1-.34.62,4.83,4.83,0,0,1-1.51,1.07A4.66,4.66,0,0,1,64.59,22.15Z" transform="translate(0 -0.03)"/>
        <path class="cls-2" d="M71,11.57a.77.77,0,0,1,.63.33l6.91,8.83a.74.74,0,0,1,.16.47.82.82,0,0,1-.23.58.77.77,0,0,1-.56.24.83.83,0,0,1-.66-.36l-6.91-8.8a.68.68,0,0,1-.18-.48.76.76,0,0,1,.25-.59A.83.83,0,0,1,71,11.57ZM71,22a.85.85,0,0,1-.52-.2.64.64,0,0,1-.26-.52.83.83,0,0,1,.18-.5l3.26-4.11L74.46,18l-2.88,3.7A.76.76,0,0,1,71,22Zm6.89-10.43a.77.77,0,0,1,.57.21.76.76,0,0,1,.2.5.65.65,0,0,1,0,.27.89.89,0,0,1-.14.25L75.18,17l-.84-1.21,2.86-3.82A.82.82,0,0,1,77.84,11.57Z" transform="translate(0 -0.03)"/>
        <path class="cls-2" d="M81.28,11.74h4.66a.72.72,0,0,1,.53.22.76.76,0,0,1,.21.54.7.7,0,0,1-.74.71H81.28a.76.76,0,0,1-.53-.21.71.71,0,0,1-.23-.52.7.7,0,0,1,.23-.53A.76.76,0,0,1,81.28,11.74ZM83.36,9a.73.73,0,0,1,.56.24.85.85,0,0,1,.22.58v9.57a1.39,1.39,0,0,0,.14.72.72.72,0,0,0,.36.33,1.24,1.24,0,0,0,.45.09,1,1,0,0,0,.35-.07.75.75,0,0,1,.35-.07.47.47,0,0,1,.36.19.64.64,0,0,1,.17.48.73.73,0,0,1-.41.61A1.86,1.86,0,0,1,85,22c-.18,0-.41,0-.68,0a2.26,2.26,0,0,1-.81-.26,1.69,1.69,0,0,1-.66-.73,3,3,0,0,1-.27-1.42V9.86a.78.78,0,0,1,.24-.58A.76.76,0,0,1,83.36,9Z" transform="translate(0 -0.03)"/>
        <path class="cls-2" d="M101,22.15a7.4,7.4,0,0,1-2.84-.54,7.12,7.12,0,0,1-2.28-1.52,7,7,0,0,1-1.52-2.28,7.45,7.45,0,0,1,0-5.62,7,7,0,0,1,3.8-3.79A7.23,7.23,0,0,1,101,7.85a8.41,8.41,0,0,1,2,.23,5.74,5.74,0,0,1,1.7.7.76.76,0,0,1,.3.29.89.89,0,0,1,.1.37.82.82,0,0,1-.23.58.7.7,0,0,1-.53.23l-.24,0a.85.85,0,0,1-.22-.09,6.13,6.13,0,0,0-2.84-.7,5.43,5.43,0,0,0-2.81.74,5.32,5.32,0,0,0-2,2A5.62,5.62,0,0,0,95.48,15a5.59,5.59,0,0,0,.72,2.83,5.28,5.28,0,0,0,2,2,5.43,5.43,0,0,0,2.81.74,6.65,6.65,0,0,0,1.63-.22,5.76,5.76,0,0,0,1.43-.56l-.12.48V16.1l.3.27h-3a.8.8,0,0,1-.57-.22.78.78,0,0,1-.24-.57.79.79,0,0,1,.24-.59.81.81,0,0,1,.57-.23h3.62a.74.74,0,0,1,.56.24.78.78,0,0,1,.23.58v4.59a.79.79,0,0,1-.11.43,1,1,0,0,1-.28.3,8.16,8.16,0,0,1-2,.92A7.67,7.67,0,0,1,101,22.15Z" transform="translate(0 -0.03)"/>
        <path class="cls-2" d="M112.8,22.15a5.58,5.58,0,0,1-2.78-.67,4.79,4.79,0,0,1-1.85-1.86,5.42,5.42,0,0,1-.67-2.73,5.9,5.9,0,0,1,.69-3A4.86,4.86,0,0,1,110,12.07a4.58,4.58,0,0,1,2.34-.64,4.89,4.89,0,0,1,1.78.33,4.68,4.68,0,0,1,1.51,1,5.14,5.14,0,0,1,1.06,1.55,5.35,5.35,0,0,1,.42,2,.75.75,0,0,1-.26.53.83.83,0,0,1-.56.21h-7.85l-.35-1.37h7.65l-.32.28v-.44a2.68,2.68,0,0,0-.55-1.4,3.32,3.32,0,0,0-1.13-.91,3.3,3.3,0,0,0-2.58-.09,3,3,0,0,0-1.06.67,3.22,3.22,0,0,0-.74,1.19,4.91,4.91,0,0,0-.28,1.77,4.25,4.25,0,0,0,.47,2,3.52,3.52,0,0,0,1.3,1.38,3.61,3.61,0,0,0,1.93.51,3.69,3.69,0,0,0,1.22-.18,3.64,3.64,0,0,0,.88-.45,4.46,4.46,0,0,0,.64-.55.85.85,0,0,1,.49-.18.69.69,0,0,1,.5.2.67.67,0,0,1,.2.48.81.81,0,0,1-.34.62,4.83,4.83,0,0,1-1.51,1.07A4.67,4.67,0,0,1,112.8,22.15Z" transform="translate(0 -0.03)"/>
        <path class="cls-2" d="M124.47,11.43a3.56,3.56,0,0,1,2.12.55,3,3,0,0,1,1.11,1.49,6.63,6.63,0,0,1,.32,2.11v5.56a.78.78,0,0,1-.23.58.74.74,0,0,1-.56.24.75.75,0,0,1-.58-.24.85.85,0,0,1-.22-.58V15.62a4,4,0,0,0-.22-1.37,2.1,2.1,0,0,0-.77-1A2.52,2.52,0,0,0,124,12.9a3.26,3.26,0,0,0-1.53.36,3.13,3.13,0,0,0-1.11,1,2.38,2.38,0,0,0-.42,1.37v5.52a.82.82,0,0,1-.23.58.79.79,0,0,1-1.13,0,.82.82,0,0,1-.23-.58V12.5a.82.82,0,0,1,.23-.59.77.77,0,0,1,.57-.22.75.75,0,0,1,.57.22.82.82,0,0,1,.22.59v1.39l-.4.44a2.91,2.91,0,0,1,.46-1.05,4.32,4.32,0,0,1,2.09-1.6A3.7,3.7,0,0,1,124.47,11.43Z" transform="translate(0 -0.03)"/>
    </g>
    <g id="limitless">
        <path class="cls-2" d="M53.25,35.11a.73.73,0,0,1,.51.2.69.69,0,0,1,.21.5.66.66,0,0,1-.21.5.72.72,0,0,1-.51.19H47.17a.7.7,0,0,1-.72-.72V24.91a.69.69,0,0,1,.21-.51.73.73,0,0,1,.54-.21.72.72,0,0,1,.72.72V35.43l-.35-.32Z" transform="translate(0 -0.03)"/>
        <path class="cls-2" d="M57.46,35.78a.7.7,0,0,1-.22.51.73.73,0,0,1-.52.21.72.72,0,0,1-.54-.21.73.73,0,0,1-.2-.51V24.91a.69.69,0,0,1,.21-.51.73.73,0,0,1,.54-.21.69.69,0,0,1,.51.21.67.67,0,0,1,.22.51Z" transform="translate(0 -0.03)"/>
        <path class="cls-2" d="M61.27,24.17a.75.75,0,0,1,.34.09.65.65,0,0,1,.29.25l4.67,7-.64,0,4.72-7a.7.7,0,0,1,.59-.34.84.84,0,0,1,.51.22.67.67,0,0,1,.21.5V35.78a.75.75,0,0,1-1.27.51.69.69,0,0,1-.2-.51V26.25l.44.07-4.15,6.31a.82.82,0,0,1-.26.23.77.77,0,0,1-.64,0,.62.62,0,0,1-.25-.23l-4.09-6.29.36-.48v9.92a.72.72,0,0,1-.19.51.68.68,0,0,1-1,0,.73.73,0,0,1-.2-.51V24.89a.72.72,0,0,1,.21-.5A.73.73,0,0,1,61.27,24.17Z" transform="translate(0 -0.03)"/>
        <path class="cls-2" d="M76.5,35.78a.67.67,0,0,1-.22.51.72.72,0,0,1-.52.21.69.69,0,0,1-.53-.21.69.69,0,0,1-.2-.51V24.91a.69.69,0,0,1,.21-.51.73.73,0,0,1,.54-.21.72.72,0,0,1,.72.72Z" transform="translate(0 -0.03)"/>
        <path class="cls-2" d="M79.33,25.54a.72.72,0,0,1-.51-.19.68.68,0,0,1,0-1,.76.76,0,0,1,.51-.18h8.18a.72.72,0,0,1,.51.19.66.66,0,0,1,.21.5.61.61,0,0,1-.21.48.76.76,0,0,1-.51.18Zm4.08,11a.72.72,0,0,1-.74-.72V24.93h1.5V35.78a.69.69,0,0,1-.21.51A.74.74,0,0,1,83.41,36.5Z" transform="translate(0 -0.03)"/>
        <path class="cls-2" d="M97.13,35.11a.73.73,0,0,1,.51.2.69.69,0,0,1,.21.5.66.66,0,0,1-.21.5.72.72,0,0,1-.51.19H91.05a.7.7,0,0,1-.72-.72V24.91a.69.69,0,0,1,.21-.51.73.73,0,0,1,.54-.21.72.72,0,0,1,.72.72V35.43l-.35-.32Z" transform="translate(0 -0.03)"/>
        <path class="cls-2" d="M100.58,24.19h6.26a.73.73,0,0,1,.51.2.67.67,0,0,1,.21.5.64.64,0,0,1-.21.49.76.76,0,0,1-.51.18h-5.66l.16-.3v4.43l-.18-.19h4.89a.72.72,0,0,1,.51.19.66.66,0,0,1,.21.51.64.64,0,0,1-.21.49.76.76,0,0,1-.51.18h-4.84l.13-.17v4.55l-.11-.12h5.61a.69.69,0,0,1,.51.21.66.66,0,0,1,0,1,.72.72,0,0,1-.51.19h-6.26a.72.72,0,0,1-.72-.72V24.91a.72.72,0,0,1,.72-.72Z" transform="translate(0 -0.03)"/>
        <path class="cls-2" d="M113.49,36.68a5.69,5.69,0,0,1-4.19-1.62.79.79,0,0,1-.2-.27.73.73,0,0,1-.08-.33.74.74,0,0,1,.2-.5.65.65,0,0,1,.5-.22.58.58,0,0,1,.44.19,5,5,0,0,0,1.49,1,4.32,4.32,0,0,0,1.8.35,3.79,3.79,0,0,0,1.39-.24,2.48,2.48,0,0,0,1-.69,1.56,1.56,0,0,0,.37-1,1.74,1.74,0,0,0-.4-1.16,3,3,0,0,0-1.09-.75,10.13,10.13,0,0,0-1.61-.53,10.73,10.73,0,0,1-1.48-.47,4.35,4.35,0,0,1-1.18-.68,2.75,2.75,0,0,1-.78-1,3.31,3.31,0,0,1-.27-1.39,3,3,0,0,1,.53-1.75,3.46,3.46,0,0,1,1.47-1.17,5,5,0,0,1,2.15-.43,5.93,5.93,0,0,1,2,.35,4,4,0,0,1,1.54,1,.94.94,0,0,1,.35.67.65.65,0,0,1-.22.47.7.7,0,0,1-.5.22.53.53,0,0,1-.35-.13,2.9,2.9,0,0,0-.76-.59,5,5,0,0,0-1-.43,4,4,0,0,0-1.08-.15,3.88,3.88,0,0,0-1.42.23,2.28,2.28,0,0,0-1,.66,1.56,1.56,0,0,0-.35,1,1.57,1.57,0,0,0,.39,1.1,3,3,0,0,0,1,.71,11,11,0,0,0,1.44.48,13.68,13.68,0,0,1,1.59.48,4.71,4.71,0,0,1,1.26.68,2.68,2.68,0,0,1,.82,1,3.68,3.68,0,0,1,.29,1.54,2.83,2.83,0,0,1-.55,1.72,3.76,3.76,0,0,1-1.48,1.2A5,5,0,0,1,113.49,36.68Z" transform="translate(0 -0.03)"/>
        <path class="cls-2" d="M123.58,36.68a5.69,5.69,0,0,1-4.18-1.62.82.82,0,0,1-.21-.27.72.72,0,0,1-.07-.33.69.69,0,0,1,.2-.5.63.63,0,0,1,.5-.22.61.61,0,0,1,.44.19,4.83,4.83,0,0,0,1.49,1,4.32,4.32,0,0,0,1.8.35,3.82,3.82,0,0,0,1.39-.24,2.38,2.38,0,0,0,1-.69,1.51,1.51,0,0,0,.37-1,1.73,1.73,0,0,0-.39-1.16,3.05,3.05,0,0,0-1.1-.75,10,10,0,0,0-1.6-.53,10.89,10.89,0,0,1-1.49-.47,4.67,4.67,0,0,1-1.18-.68,2.84,2.84,0,0,1-.77-1,3.31,3.31,0,0,1-.27-1.39,2.94,2.94,0,0,1,.52-1.75,3.46,3.46,0,0,1,1.47-1.17,5.11,5.11,0,0,1,2.16-.43,6,6,0,0,1,2,.35,4,4,0,0,1,1.54,1,1,1,0,0,1,.35.67.69.69,0,0,1-.22.47.73.73,0,0,1-.5.22.55.55,0,0,1-.36-.13,2.74,2.74,0,0,0-.76-.59,5,5,0,0,0-1-.43,4,4,0,0,0-1.08-.15,3.94,3.94,0,0,0-1.43.23,2.28,2.28,0,0,0-1,.66,1.55,1.55,0,0,0-.34,1,1.57,1.57,0,0,0,.39,1.1,2.85,2.85,0,0,0,1,.71,11.73,11.73,0,0,0,1.45.48,15,15,0,0,1,1.59.48,5,5,0,0,1,1.26.68,2.66,2.66,0,0,1,.81,1,3.53,3.53,0,0,1,.29,1.54,2.88,2.88,0,0,1-.54,1.72,3.79,3.79,0,0,1-1.49,1.2A5,5,0,0,1,123.58,36.68Z" transform="translate(0 -0.03)"/>
    </g>
    <g id="spaceship-logo">
        <path class="cls-3" d="M36.31,19.06v1.57a.55.55,0,1,1-1.1,0V19.06a.55.55,0,1,1,1.1,0ZM9.72,31.91A4.42,4.42,0,0,1,11.91,28v-9c0-9.5,2.93-12.76,3.05-12.9A.59.59,0,0,1,15.37,6a.55.55,0,0,1,.4.18c.1.11,2,2.2,2.74,7.84,1.59-8.71,5-12,5.23-12.13a.55.55,0,0,1,.74,0C24.67,2,28.12,5.29,29.71,14c.76-5.64,2.64-7.73,2.74-7.84a.55.55,0,0,1,.4-.18.58.58,0,0,1,.41.18c.1.11,2.53,2.8,3,10.38a.55.55,0,0,1-.52.58.54.54,0,0,1-.58-.52h0c-.32-5.28-1.61-8-2.28-9.11-.77,1.26-2.36,4.71-2.36,11.57v6.38a20.63,20.63,0,0,0,4.37,2l.34.12V22.76a.55.55,0,1,1,1.1,0V28a4.42,4.42,0,0,1,2.19,3.87v1.9a.55.55,0,0,1-.55.56H36.31v1.47l.7,2.68a.54.54,0,0,1-.4.67l-.14,0H29.23a.55.55,0,0,1-.55-.55.32.32,0,0,1,0-.14l.69-2.68V34.36H28.24v2a.54.54,0,0,1-.55.55h-3v1.79a.56.56,0,0,1-1.11,0V36.87h-3a.55.55,0,0,1-.55-.55v-2H18.83v1.48l.7,2.68a.54.54,0,0,1-.4.67l-.14,0H17.55a.56.56,0,1,1,0-1.11h.73l-.43-1.63h-5l-.43,1.63h2.59a.56.56,0,1,1,0,1.11h-3.3a.55.55,0,0,1-.55-.55.61.61,0,0,1,0-.14l.7-2.68V34.36H10.27a.55.55,0,0,1-.55-.55Zm8,2.45H13v1h4.71Zm5.83-2a1.24,1.24,0,1,0-2.47,0V33.8h0v2h2.47Zm3.58,0a1.24,1.24,0,0,0-2.47,0h0v3.41h2.47v-2h0Zm8.62,5.74-.43-1.63h-5L30,38.1Zm-.55-2.74v-1H30.5v1Zm-5.62-9.18a13.4,13.4,0,0,1-2-1.67v6.21a2.37,2.37,0,0,1,.66,1.64v.9H37.4v-.79h-5a.56.56,0,0,1,0-1.11h4.94a3.15,3.15,0,0,0-1.8-2.46l-1-.4a21.42,21.42,0,0,1-4.82-2.26l0,0-.05,0ZM18.83,24.65a12.18,12.18,0,0,0,1.82-1.77V21.7a33.51,33.51,0,0,1,.71-7.27.55.55,0,1,1,1.08.23,32.7,32.7,0,0,0-.68,7v8.39a2.29,2.29,0,0,1,1.8.28V28.48a.55.55,0,0,1,.55-.55.56.56,0,0,1,.56.55v1.89a2.27,2.27,0,0,1,1.8-.28V21.7c0-6.9-1.59-10.32-2.36-11.56a11.09,11.09,0,0,0-.92,1.94.55.55,0,1,1-1-.38,8.91,8.91,0,0,1,1.56-2.89.56.56,0,0,1,.8,0h0c.12.13,3.05,3.4,3.05,12.89v1.18a13.23,13.23,0,0,0,1.82,1.77V23.43c0-13-4-18.83-5.28-20.33-1.26,1.5-5.28,7.3-5.28,20.33ZM13,27.58l.33-.12a20.94,20.94,0,0,0,4.38-2V19.06c0-6.9-1.59-10.32-2.36-11.57C14.61,8.75,13,12.2,13,19.06Zm-2.19,5.68H20v-.9a2.33,2.33,0,0,1,.67-1.64V24.51a13.56,13.56,0,0,1-2,1.67h0l-.05,0h0a21.22,21.22,0,0,1-4.82,2.27c-.39.14-.75.27-1.05.4h0a3.11,3.11,0,0,0-1.79,2.46h4.93a.55.55,0,0,1,.55.55.54.54,0,0,1-.55.55h-5ZM23.16,19h1.9a.56.56,0,0,0,0-1.11h-1.9a.56.56,0,0,0,0,1.11Z" transform="translate(0 -0.03)"/>
    </g>
</svg>
